<svg width="116" height="24" viewBox="0 0 116 24" fill="none" xmlns="http://www.w3.org/2000/svg">
<path d="M38.116 8.242H35.078V18H38.116C41.322 18 43.296 16.166 43.296 13.142C43.296 10.118 41.322 8.242 38.116 8.242ZM36.352 16.95V9.278H38.116C40.664 9.278 41.994 10.762 41.994 13.142C41.994 15.522 40.664 16.95 38.116 16.95H36.352ZM44.5004 14.136C44.5004 16.516 46.0824 18.126 48.1264 18.126C49.5404 18.126 50.5344 17.398 50.9964 16.572V18H52.2844V10.328H50.9964V11.728C50.5484 10.93 49.5684 10.202 48.1404 10.202C46.0824 10.202 44.5004 11.742 44.5004 14.136ZM50.9964 14.15C50.9964 15.956 49.7924 17.006 48.3924 17.006C46.9924 17.006 45.8024 15.942 45.8024 14.136C45.8024 12.33 46.9924 11.308 48.3924 11.308C49.7924 11.308 50.9964 12.372 50.9964 14.15ZM59.9534 15.914C59.8974 13.17 55.4454 14.164 55.4454 12.344C55.4454 11.728 56.0054 11.28 56.9434 11.28C57.9654 11.28 58.5534 11.84 58.6094 12.61H59.8834C59.7994 11.112 58.6794 10.202 56.9854 10.202C55.2774 10.202 54.1714 11.168 54.1714 12.344C54.1714 15.2 58.7074 14.206 58.7074 15.914C58.7074 16.544 58.1474 17.048 57.1394 17.048C56.0614 17.048 55.4034 16.488 55.3334 15.746H54.0174C54.1014 17.146 55.3614 18.126 57.1534 18.126C58.8474 18.126 59.9534 17.174 59.9534 15.914ZM61.7518 18H63.0258V13.758C63.0258 12.106 63.9218 11.294 65.2238 11.294C66.5118 11.294 67.3658 12.092 67.3658 13.66V18H68.6258V13.478C68.6258 11.28 67.2678 10.188 65.5598 10.188C64.4818 10.188 63.5298 10.622 63.0258 11.434V7.64H61.7518V18ZM71.9809 11.756V7.64H70.7069V18H71.9809V16.586C72.4569 17.426 73.4509 18.126 74.8509 18.126C76.9089 18.126 78.4909 16.516 78.4909 14.136C78.4909 11.742 76.9229 10.202 74.8509 10.202C73.4929 10.202 72.4709 10.902 71.9809 11.756ZM77.1889 14.136C77.1889 15.942 75.9989 17.006 74.5849 17.006C73.1989 17.006 71.9809 15.956 71.9809 14.15C71.9809 12.372 73.1989 11.308 74.5849 11.308C75.9989 11.308 77.1889 12.33 77.1889 14.136ZM87.4478 14.15C87.4478 11.728 85.7538 10.202 83.5698 10.202C81.3998 10.202 79.6918 11.728 79.6918 14.15C79.6918 16.586 81.3438 18.126 83.5138 18.126C85.6978 18.126 87.4478 16.586 87.4478 14.15ZM80.9938 14.15C80.9938 12.218 82.2118 11.308 83.5558 11.308C84.8718 11.308 86.1458 12.218 86.1458 14.15C86.1458 16.096 84.8438 17.006 83.5138 17.006C82.1838 17.006 80.9938 16.096 80.9938 14.15ZM88.6469 14.136C88.6469 16.516 90.2289 18.126 92.2729 18.126C93.6869 18.126 94.6809 17.398 95.1429 16.572V18H96.4309V10.328H95.1429V11.728C94.6949 10.93 93.7149 10.202 92.2869 10.202C90.2289 10.202 88.6469 11.742 88.6469 14.136ZM95.1429 14.15C95.1429 15.956 93.9389 17.006 92.5389 17.006C91.1389 17.006 89.9489 15.942 89.9489 14.136C89.9489 12.33 91.1389 11.308 92.5389 11.308C93.9389 11.308 95.1429 12.372 95.1429 14.15ZM99.8579 13.828C99.8579 12.05 100.782 11.504 102 11.504H102.336V10.188C101.118 10.188 100.292 10.72 99.8579 11.574V10.328H98.5839V18H99.8579V13.828ZM103.331 14.136C103.331 16.516 104.913 18.126 106.971 18.126C108.371 18.126 109.365 17.412 109.827 16.558V18H111.115V7.64H109.827V11.7C109.295 10.818 108.189 10.202 106.985 10.202C104.913 10.202 103.331 11.742 103.331 14.136ZM109.827 14.15C109.827 15.956 108.623 17.006 107.223 17.006C105.823 17.006 104.633 15.942 104.633 14.136C104.633 12.33 105.823 11.308 107.223 11.308C108.623 11.308 109.827 12.372 109.827 14.15Z" fill="#330693"/>
<path d="M11.9151 4H19.8586V10H11.9151V4ZM11.9151 21V11H19.8586V21H11.9151ZM2.97876 21V15H10.9222V21H2.97876ZM2.97876 14V4H10.9222V14H2.97876ZM3.97169 5V13H9.92926V5H3.97169ZM12.9081 5V9H18.8656V5H12.9081ZM12.9081 12V20H18.8656V12H12.9081ZM3.97169 16V20H9.92926V16H3.97169Z" fill="#330693"/>
</svg>
