<svg width="136" height="24" viewBox="0 0 136 24" fill="none" xmlns="http://www.w3.org/2000/svg">
<path fill-rule="evenodd" clip-rule="evenodd" d="M22.8988 2.4C23.507 2.4 24 2.93395 24 3.59209V22.8079C24 23.4663 23.5206 24 22.9064 24H1.09357C0.489596 24 0 23.4661 0 22.8079V3.59209C0 2.93372 0.483691 2.4 1.10116 2.4H4.36364V3.6L1.09091 3.65625V22.8H22.9091V3.6H19.6364V2.4H22.8988ZM15.2727 2.4H14.1818V3.6H15.2727V2.4ZM9.81818 2.4H8.72727V3.6H9.81818V2.4ZM5.69292 8.4C5.56126 8.4 5.45455 8.50648 5.45455 8.63994V9.36006C5.45455 9.49258 5.5599 9.6 5.69292 9.6H18.3071C18.4387 9.6 18.5455 9.49352 18.5455 9.36006V8.63994C18.5455 8.50742 18.4401 8.4 18.3071 8.4H5.69292ZM5.69292 13.2C5.56126 13.2 5.45455 13.3065 5.45455 13.4399V14.1601C5.45455 14.2926 5.5599 14.4 5.69292 14.4H18.3071C18.4387 14.4 18.5455 14.2935 18.5455 14.1601V13.4399C18.5455 13.3074 18.4401 13.2 18.3071 13.2H5.69292ZM5.69292 18C5.56126 18 5.45455 18.1065 5.45455 18.2399V18.9601C5.45455 19.0926 5.5599 19.2 5.69292 19.2H18.3071C18.4387 19.2 18.5455 19.0935 18.5455 18.9601V18.2399C18.5455 18.1074 18.4401 18 18.3071 18H5.69292ZM6.54545 4.8C7.14795 4.8 7.63636 3.72548 7.63636 2.4C7.63636 1.07452 7.14795 0 6.54545 0C5.94296 0 5.45455 1.07452 5.45455 2.4C5.45455 3.72548 5.94296 4.8 6.54545 4.8ZM12 4.8C12.6025 4.8 13.0909 3.72548 13.0909 2.4C13.0909 1.07452 12.6025 0 12 0C11.3975 0 10.9091 1.07452 10.9091 2.4C10.9091 3.72548 11.3975 4.8 12 4.8ZM17.4545 4.8C18.057 4.8 18.5455 3.72548 18.5455 2.4C18.5455 1.07452 18.057 0 17.4545 0C16.8521 0 16.3636 1.07452 16.3636 2.4C16.3636 3.72548 16.8521 4.8 17.4545 4.8Z" fill="#330693"/>
<path d="M35.078 18H36.352V10.762L39.586 18H40.482L43.702 10.776V18H44.976V8.312H43.618L40.034 16.32L36.45 8.312H35.078V18ZM50.3986 11.28C51.7146 11.28 52.8346 12.106 52.8206 13.604H47.9766C48.1166 12.106 49.1526 11.28 50.3986 11.28ZM53.9826 15.634H52.6106C52.3306 16.46 51.6026 17.048 50.4546 17.048C49.1526 17.048 48.0606 16.194 47.9626 14.64H54.0946C54.1226 14.374 54.1366 14.15 54.1366 13.87C54.1366 11.77 52.6806 10.202 50.4546 10.202C48.2146 10.202 46.6606 11.728 46.6606 14.15C46.6606 16.586 48.2706 18.126 50.4546 18.126C52.3586 18.126 53.5906 17.034 53.9826 15.634ZM62.6222 10.328H61.3482V14.542C61.3482 16.194 60.4662 17.006 59.1502 17.006C57.8622 17.006 57.0082 16.208 57.0082 14.654V10.328H55.7482V14.822C55.7482 17.02 57.1342 18.112 58.8982 18.112C59.9202 18.112 60.8582 17.664 61.3482 16.866V18H62.6222V10.328ZM70.2893 15.914C70.2333 13.17 65.7813 14.164 65.7813 12.344C65.7813 11.728 66.3413 11.28 67.2793 11.28C68.3013 11.28 68.8893 11.84 68.9453 12.61H70.2193C70.1353 11.112 69.0153 10.202 67.3213 10.202C65.6133 10.202 64.5073 11.168 64.5073 12.344C64.5073 15.2 69.0433 14.206 69.0433 15.914C69.0433 16.544 68.4833 17.048 67.4753 17.048C66.3973 17.048 65.7393 16.488 65.6693 15.746H64.3533C64.4373 17.146 65.6973 18.126 67.4893 18.126C69.1833 18.126 70.2893 17.174 70.2893 15.914ZM77.0942 13.828C77.0942 12.05 78.0182 11.504 79.2362 11.504H79.5722V10.188C78.3542 10.188 77.5282 10.72 77.0942 11.574V10.328H75.8202V18H77.0942V13.828ZM84.3048 11.28C85.6208 11.28 86.7408 12.106 86.7268 13.604H81.8828C82.0228 12.106 83.0588 11.28 84.3048 11.28ZM87.8888 15.634H86.5168C86.2368 16.46 85.5088 17.048 84.3608 17.048C83.0588 17.048 81.9668 16.194 81.8688 14.64H88.0008C88.0288 14.374 88.0428 14.15 88.0428 13.87C88.0428 11.77 86.5868 10.202 84.3608 10.202C82.1208 10.202 80.5668 11.728 80.5668 14.15C80.5668 16.586 82.1768 18.126 84.3608 18.126C86.2648 18.126 87.4968 17.034 87.8888 15.634ZM89.2485 14.136C89.2485 16.516 90.8305 18.126 92.8885 18.126C94.2885 18.126 95.2825 17.384 95.7445 16.558V18.168C95.7445 19.806 94.7225 20.674 93.3645 20.674C92.1045 20.674 91.1945 20.044 90.9145 19.12H89.6545C89.9065 20.758 91.3485 21.78 93.3645 21.78C95.6185 21.78 97.0325 20.282 97.0325 18.168V10.328H95.7445V11.728C95.2965 10.902 94.2885 10.202 92.8885 10.202C90.8305 10.202 89.2485 11.742 89.2485 14.136ZM95.7445 14.15C95.7445 15.956 94.5405 17.006 93.1405 17.006C91.7405 17.006 90.5505 15.942 90.5505 14.136C90.5505 12.33 91.7405 11.308 93.1405 11.308C94.5405 11.308 95.7445 12.372 95.7445 14.15ZM99.1854 18H100.459V10.328H99.1854V18ZM99.8434 9.082C100.305 9.082 100.683 8.704 100.683 8.214C100.683 7.724 100.305 7.346 99.8434 7.346C99.3534 7.346 98.9754 7.724 98.9754 8.214C98.9754 8.704 99.3534 9.082 99.8434 9.082ZM108.147 15.914C108.091 13.17 103.639 14.164 103.639 12.344C103.639 11.728 104.199 11.28 105.137 11.28C106.159 11.28 106.747 11.84 106.803 12.61H108.077C107.993 11.112 106.873 10.202 105.179 10.202C103.471 10.202 102.365 11.168 102.365 12.344C102.365 15.2 106.901 14.206 106.901 15.914C106.901 16.544 106.341 17.048 105.333 17.048C104.255 17.048 103.597 16.488 103.527 15.746H102.211C102.295 17.146 103.555 18.126 105.347 18.126C107.041 18.126 108.147 17.174 108.147 15.914ZM110.225 15.9C110.225 17.44 110.995 18 112.353 18H113.501V16.922H112.563C111.779 16.922 111.499 16.656 111.499 15.9V11.378H113.501V10.328H111.499V8.396H110.225V10.328H109.231V11.378H110.225V15.9ZM116.319 13.828C116.319 12.05 117.243 11.504 118.461 11.504H118.797V10.188C117.579 10.188 116.753 10.72 116.319 11.574V10.328H115.045V18H116.319V13.828ZM127.547 14.15C127.547 11.728 125.853 10.202 123.669 10.202C121.499 10.202 119.791 11.728 119.791 14.15C119.791 16.586 121.443 18.126 123.613 18.126C125.797 18.126 127.547 16.586 127.547 14.15ZM121.093 14.15C121.093 12.218 122.311 11.308 123.655 11.308C124.971 11.308 126.245 12.218 126.245 14.15C126.245 16.096 124.943 17.006 123.613 17.006C122.283 17.006 121.093 16.096 121.093 14.15ZM134.739 15.914C134.683 13.17 130.231 14.164 130.231 12.344C130.231 11.728 130.791 11.28 131.729 11.28C132.751 11.28 133.339 11.84 133.395 12.61H134.669C134.585 11.112 133.465 10.202 131.771 10.202C130.063 10.202 128.957 11.168 128.957 12.344C128.957 15.2 133.493 14.206 133.493 15.914C133.493 16.544 132.933 17.048 131.925 17.048C130.847 17.048 130.189 16.488 130.119 15.746H128.803C128.887 17.146 130.147 18.126 131.939 18.126C133.633 18.126 134.739 17.174 134.739 15.914Z" fill="#330693"/>
</svg>
