<svg width="633" height="114" viewBox="0 0 633 114" fill="none" xmlns="http://www.w3.org/2000/svg">
<path d="M67.2519 11.08V15.68H76.2519V21.64H67.2519V26.72H77.4519V33H59.4119V4.8H77.4519V11.08H67.2519ZM96.0059 10.36C98.5926 10.36 100.646 11.2267 102.166 12.96C103.686 14.6667 104.446 16.9867 104.446 19.92V33H96.6059V20.96C96.6059 19.68 96.2726 18.68 95.6059 17.96C94.9393 17.2133 94.0459 16.84 92.9259 16.84C91.7526 16.84 90.8326 17.2133 90.1659 17.96C89.4993 18.68 89.1659 19.68 89.1659 20.96V33H81.3259V10.56H89.1659V13.76C89.8593 12.7467 90.7926 11.9333 91.9659 11.32C93.1393 10.68 94.4859 10.36 96.0059 10.36ZM107.468 21.76C107.468 19.44 107.948 17.4133 108.908 15.68C109.868 13.9467 111.201 12.6133 112.908 11.68C114.641 10.7467 116.614 10.28 118.828 10.28C121.681 10.28 124.081 11.0667 126.028 12.64C127.974 14.1867 129.228 16.36 129.788 19.16H121.468C120.988 17.6933 120.054 16.96 118.668 16.96C117.681 16.96 116.894 17.3733 116.308 18.2C115.748 19 115.468 20.1867 115.468 21.76C115.468 23.3333 115.748 24.5333 116.308 25.36C116.894 26.1867 117.681 26.6 118.668 26.6C120.081 26.6 121.014 25.8667 121.468 24.4H129.788C129.228 27.1733 127.974 29.3467 126.028 30.92C124.081 32.4933 121.681 33.28 118.828 33.28C116.614 33.28 114.641 32.8133 112.908 31.88C111.201 30.9467 109.868 29.6133 108.908 27.88C107.948 26.1467 107.468 24.1067 107.468 21.76ZM143.485 33.28C141.245 33.28 139.231 32.8133 137.445 31.88C135.685 30.9467 134.298 29.6133 133.285 27.88C132.271 26.1467 131.765 24.1067 131.765 21.76C131.765 19.44 132.271 17.4133 133.285 15.68C134.325 13.9467 135.725 12.6133 137.485 11.68C139.271 10.7467 141.285 10.28 143.525 10.28C145.765 10.28 147.765 10.7467 149.525 11.68C151.311 12.6133 152.711 13.9467 153.725 15.68C154.765 17.4133 155.285 19.44 155.285 21.76C155.285 24.08 154.765 26.12 153.725 27.88C152.711 29.6133 151.311 30.9467 149.525 31.88C147.738 32.8133 145.725 33.28 143.485 33.28ZM143.485 26.48C144.578 26.48 145.485 26.08 146.205 25.28C146.951 24.4533 147.325 23.28 147.325 21.76C147.325 20.24 146.951 19.08 146.205 18.28C145.485 17.48 144.591 17.08 143.525 17.08C142.458 17.08 141.565 17.48 140.845 18.28C140.125 19.08 139.765 20.24 139.765 21.76C139.765 23.3067 140.111 24.48 140.805 25.28C141.498 26.08 142.391 26.48 143.485 26.48ZM173.154 10.36C175.741 10.36 177.794 11.2267 179.314 12.96C180.834 14.6667 181.594 16.9867 181.594 19.92V33H173.754V20.96C173.754 19.68 173.421 18.68 172.754 17.96C172.088 17.2133 171.194 16.84 170.074 16.84C168.901 16.84 167.981 17.2133 167.314 17.96C166.648 18.68 166.314 19.68 166.314 20.96V33H158.474V10.56H166.314V13.76C167.008 12.7467 167.941 11.9333 169.114 11.32C170.288 10.68 171.634 10.36 173.154 10.36ZM199.136 26.32V33H195.736C190.003 33 187.136 30.16 187.136 24.48V17.08H184.376V10.56H187.136V5.12H195.016V10.56H199.096V17.08H195.016V24.6C195.016 25.2133 195.15 25.6533 195.416 25.92C195.71 26.1867 196.19 26.32 196.856 26.32H199.136ZM210.572 14.52C211.452 13.24 212.519 12.2267 213.772 11.48C215.026 10.7333 216.372 10.36 217.812 10.36V18.72H215.612C213.906 18.72 212.639 19.0533 211.812 19.72C210.986 20.3867 210.572 21.5467 210.572 23.2V33H202.732V10.56H210.572V14.52ZM242.063 21.52C242.063 22.1333 242.023 22.7467 241.943 23.36H227.103C227.183 24.5867 227.516 25.5067 228.103 26.12C228.716 26.7067 229.489 27 230.423 27C231.729 27 232.663 26.4133 233.223 25.24H241.583C241.236 26.7867 240.556 28.1733 239.543 29.4C238.556 30.6 237.303 31.5467 235.783 32.24C234.263 32.9333 232.583 33.28 230.743 33.28C228.529 33.28 226.556 32.8133 224.823 31.88C223.116 30.9467 221.769 29.6133 220.783 27.88C219.823 26.1467 219.343 24.1067 219.343 21.76C219.343 19.4133 219.823 17.3867 220.783 15.68C221.743 13.9467 223.076 12.6133 224.783 11.68C226.516 10.7467 228.503 10.28 230.743 10.28C232.956 10.28 234.916 10.7333 236.623 11.64C238.329 12.5467 239.663 13.8533 240.623 15.56C241.583 17.24 242.063 19.2267 242.063 21.52ZM234.063 19.56C234.063 18.6 233.743 17.8533 233.103 17.32C232.463 16.76 231.663 16.48 230.703 16.48C229.743 16.48 228.956 16.7467 228.343 17.28C227.729 17.7867 227.329 18.5467 227.143 19.56H234.063ZM263.368 33.28C261.128 33.28 259.114 32.8133 257.328 31.88C255.568 30.9467 254.181 29.6133 253.168 27.88C252.154 26.1467 251.648 24.1067 251.648 21.76C251.648 19.44 252.154 17.4133 253.168 15.68C254.208 13.9467 255.608 12.6133 257.368 11.68C259.154 10.7467 261.168 10.28 263.408 10.28C265.648 10.28 267.648 10.7467 269.408 11.68C271.194 12.6133 272.594 13.9467 273.608 15.68C274.648 17.4133 275.168 19.44 275.168 21.76C275.168 24.08 274.648 26.12 273.608 27.88C272.594 29.6133 271.194 30.9467 269.408 31.88C267.621 32.8133 265.608 33.28 263.368 33.28ZM263.368 26.48C264.461 26.48 265.368 26.08 266.088 25.28C266.834 24.4533 267.208 23.28 267.208 21.76C267.208 20.24 266.834 19.08 266.088 18.28C265.368 17.48 264.474 17.08 263.408 17.08C262.341 17.08 261.448 17.48 260.728 18.28C260.008 19.08 259.648 20.24 259.648 21.76C259.648 23.3067 259.994 24.48 260.688 25.28C261.381 26.08 262.274 26.48 263.368 26.48ZM293.853 13.68C294.467 12.64 295.333 11.8133 296.453 11.2C297.573 10.5867 298.893 10.28 300.413 10.28C302.2 10.28 303.813 10.7467 305.253 11.68C306.72 12.6133 307.867 13.9467 308.693 15.68C309.547 17.4133 309.973 19.44 309.973 21.76C309.973 24.08 309.547 26.12 308.693 27.88C307.867 29.6133 306.72 30.9467 305.253 31.88C303.813 32.8133 302.2 33.28 300.413 33.28C298.893 33.28 297.573 32.9733 296.453 32.36C295.36 31.7467 294.493 30.92 293.853 29.88V43.72H286.013V10.56H293.853V13.68ZM302.013 21.76C302.013 20.2933 301.613 19.16 300.813 18.36C300.04 17.5333 299.08 17.12 297.933 17.12C296.787 17.12 295.813 17.5333 295.013 18.36C294.24 19.1867 293.853 20.32 293.853 21.76C293.853 23.2267 294.24 24.3733 295.013 25.2C295.813 26.0267 296.787 26.44 297.933 26.44C299.08 26.44 300.04 26.0267 300.813 25.2C301.613 24.3467 302.013 23.2 302.013 21.76ZM321.041 3.4V33H313.201V3.4H321.041ZM324.226 21.76C324.226 19.44 324.639 17.4133 325.466 15.68C326.319 13.9467 327.466 12.6133 328.906 11.68C330.372 10.7467 331.999 10.28 333.786 10.28C335.332 10.28 336.666 10.5867 337.786 11.2C338.906 11.8133 339.772 12.64 340.386 13.68V10.56H348.226V33H340.386V29.88C339.772 30.92 338.892 31.7467 337.746 32.36C336.626 32.9733 335.306 33.28 333.786 33.28C331.999 33.28 330.372 32.8133 328.906 31.88C327.466 30.9467 326.319 29.6133 325.466 27.88C324.639 26.12 324.226 24.08 324.226 21.76ZM340.386 21.76C340.386 20.32 339.986 19.1867 339.186 18.36C338.412 17.5333 337.452 17.12 336.306 17.12C335.132 17.12 334.159 17.5333 333.386 18.36C332.612 19.16 332.226 20.2933 332.226 21.76C332.226 23.2 332.612 24.3467 333.386 25.2C334.159 26.0267 335.132 26.44 336.306 26.44C337.452 26.44 338.412 26.0267 339.186 25.2C339.986 24.3733 340.386 23.2267 340.386 21.76ZM367.373 10.36C369.96 10.36 372.013 11.2267 373.533 12.96C375.053 14.6667 375.813 16.9867 375.813 19.92V33H367.973V20.96C367.973 19.68 367.64 18.68 366.973 17.96C366.306 17.2133 365.413 16.84 364.293 16.84C363.12 16.84 362.2 17.2133 361.533 17.96C360.866 18.68 360.533 19.68 360.533 20.96V33H352.693V10.56H360.533V13.76C361.226 12.7467 362.16 11.9333 363.333 11.32C364.506 10.68 365.853 10.36 367.373 10.36ZM390.555 33.28C388.315 33.28 386.302 32.8133 384.515 31.88C382.755 30.9467 381.368 29.6133 380.355 27.88C379.342 26.1467 378.835 24.1067 378.835 21.76C378.835 19.44 379.342 17.4133 380.355 15.68C381.395 13.9467 382.795 12.6133 384.555 11.68C386.342 10.7467 388.355 10.28 390.595 10.28C392.835 10.28 394.835 10.7467 396.595 11.68C398.382 12.6133 399.782 13.9467 400.795 15.68C401.835 17.4133 402.355 19.44 402.355 21.76C402.355 24.08 401.835 26.12 400.795 27.88C399.782 29.6133 398.382 30.9467 396.595 31.88C394.808 32.8133 392.795 33.28 390.555 33.28ZM390.555 26.48C391.648 26.48 392.555 26.08 393.275 25.28C394.022 24.4533 394.395 23.28 394.395 21.76C394.395 20.24 394.022 19.08 393.275 18.28C392.555 17.48 391.662 17.08 390.595 17.08C389.528 17.08 388.635 17.48 387.915 18.28C387.195 19.08 386.835 20.24 386.835 21.76C386.835 23.3067 387.182 24.48 387.875 25.28C388.568 26.08 389.462 26.48 390.555 26.48ZM421.041 13.68C421.654 12.64 422.521 11.8133 423.641 11.2C424.761 10.5867 426.081 10.28 427.601 10.28C429.388 10.28 431.001 10.7467 432.441 11.68C433.908 12.6133 435.054 13.9467 435.881 15.68C436.734 17.4133 437.161 19.44 437.161 21.76C437.161 24.08 436.734 26.12 435.881 27.88C435.054 29.6133 433.908 30.9467 432.441 31.88C431.001 32.8133 429.388 33.28 427.601 33.28C426.081 33.28 424.761 32.9733 423.641 32.36C422.548 31.7467 421.681 30.92 421.041 29.88V43.72H413.201V10.56H421.041V13.68ZM429.201 21.76C429.201 20.2933 428.801 19.16 428.001 18.36C427.228 17.5333 426.268 17.12 425.121 17.12C423.974 17.12 423.001 17.5333 422.201 18.36C421.428 19.1867 421.041 20.32 421.041 21.76C421.041 23.2267 421.428 24.3733 422.201 25.2C423.001 26.0267 423.974 26.44 425.121 26.44C426.268 26.44 427.228 26.0267 428.001 25.2C428.801 24.3467 429.201 23.2 429.201 21.76ZM461.828 21.52C461.828 22.1333 461.788 22.7467 461.708 23.36H446.868C446.948 24.5867 447.282 25.5067 447.868 26.12C448.482 26.7067 449.255 27 450.188 27C451.495 27 452.428 26.4133 452.988 25.24H461.348C461.002 26.7867 460.322 28.1733 459.308 29.4C458.322 30.6 457.068 31.5467 455.548 32.24C454.028 32.9333 452.348 33.28 450.508 33.28C448.295 33.28 446.322 32.8133 444.588 31.88C442.882 30.9467 441.535 29.6133 440.548 27.88C439.588 26.1467 439.108 24.1067 439.108 21.76C439.108 19.4133 439.588 17.3867 440.548 15.68C441.508 13.9467 442.842 12.6133 444.548 11.68C446.282 10.7467 448.268 10.28 450.508 10.28C452.722 10.28 454.682 10.7333 456.388 11.64C458.095 12.5467 459.428 13.8533 460.388 15.56C461.348 17.24 461.828 19.2267 461.828 21.52ZM453.828 19.56C453.828 18.6 453.508 17.8533 452.868 17.32C452.228 16.76 451.428 16.48 450.468 16.48C449.508 16.48 448.722 16.7467 448.108 17.28C447.495 17.7867 447.095 18.5467 446.908 19.56H453.828ZM472.877 14.52C473.757 13.24 474.824 12.2267 476.077 11.48C477.33 10.7333 478.677 10.36 480.117 10.36V18.72H477.917C476.21 18.72 474.944 19.0533 474.117 19.72C473.29 20.3867 472.877 21.5467 472.877 23.2V33H465.037V10.56H472.877V14.52ZM495.048 17.08H491.528V33H483.648V17.08H481.208V10.56H483.648V10.36C483.648 7.48 484.488 5.28 486.168 3.76C487.874 2.21333 490.314 1.44 493.488 1.44C494.128 1.44 494.621 1.45333 494.968 1.48V8.16C494.754 8.13333 494.461 8.12 494.088 8.12C493.234 8.12 492.608 8.32 492.208 8.72C491.808 9.09333 491.581 9.70666 491.528 10.56H495.048V17.08ZM519.289 21.52C519.289 22.1333 519.249 22.7467 519.169 23.36H504.329C504.409 24.5867 504.743 25.5067 505.329 26.12C505.943 26.7067 506.716 27 507.649 27C508.956 27 509.889 26.4133 510.449 25.24H518.809C518.463 26.7867 517.783 28.1733 516.769 29.4C515.783 30.6 514.529 31.5467 513.009 32.24C511.489 32.9333 509.809 33.28 507.969 33.28C505.756 33.28 503.783 32.8133 502.049 31.88C500.343 30.9467 498.996 29.6133 498.009 27.88C497.049 26.1467 496.569 24.1067 496.569 21.76C496.569 19.4133 497.049 17.3867 498.009 15.68C498.969 13.9467 500.303 12.6133 502.009 11.68C503.743 10.7467 505.729 10.28 507.969 10.28C510.183 10.28 512.143 10.7333 513.849 11.64C515.556 12.5467 516.889 13.8533 517.849 15.56C518.809 17.24 519.289 19.2267 519.289 21.52ZM511.289 19.56C511.289 18.6 510.969 17.8533 510.329 17.32C509.689 16.76 508.889 16.48 507.929 16.48C506.969 16.48 506.183 16.7467 505.569 17.28C504.956 17.7867 504.556 18.5467 504.369 19.56H511.289ZM526.458 8.48C525.071 8.48 523.951 8.10667 523.098 7.36C522.271 6.58667 521.858 5.62667 521.858 4.48C521.858 3.30667 522.271 2.33333 523.098 1.56C523.951 0.786665 525.071 0.399998 526.458 0.399998C527.818 0.399998 528.911 0.786665 529.738 1.56C530.591 2.33333 531.018 3.30667 531.018 4.48C531.018 5.62667 530.591 6.58667 529.738 7.36C528.911 8.10667 527.818 8.48 526.458 8.48ZM530.338 10.56V33H522.498V10.56H530.338ZM548.043 26.32V33H544.643C538.909 33 536.043 30.16 536.043 24.48V17.08H533.283V10.56H536.043V5.12H543.923V10.56H548.003V17.08H543.923V24.6C543.923 25.2133 544.056 25.6533 544.322 25.92C544.616 26.1867 545.096 26.32 545.763 26.32H548.043ZM562.078 33.28C559.838 33.28 557.825 32.8133 556.038 31.88C554.278 30.9467 552.892 29.6133 551.878 27.88C550.865 26.1467 550.358 24.1067 550.358 21.76C550.358 19.44 550.865 17.4133 551.878 15.68C552.918 13.9467 554.318 12.6133 556.078 11.68C557.865 10.7467 559.878 10.28 562.118 10.28C564.358 10.28 566.358 10.7467 568.118 11.68C569.905 12.6133 571.305 13.9467 572.318 15.68C573.358 17.4133 573.878 19.44 573.878 21.76C573.878 24.08 573.358 26.12 572.318 27.88C571.305 29.6133 569.905 30.9467 568.118 31.88C566.332 32.8133 564.318 33.28 562.078 33.28ZM562.078 26.48C563.172 26.48 564.078 26.08 564.798 25.28C565.545 24.4533 565.918 23.28 565.918 21.76C565.918 20.24 565.545 19.08 564.798 18.28C564.078 17.48 563.185 17.08 562.118 17.08C561.052 17.08 560.158 17.48 559.438 18.28C558.718 19.08 558.358 20.24 558.358 21.76C558.358 23.3067 558.705 24.48 559.398 25.28C560.092 26.08 560.985 26.48 562.078 26.48Z" fill="white"/>
<path opacity="0.7" d="M8.45016 67.04H0.950156V81H8.45016V79.5H2.77016V74.7H7.85016V73.2H2.77016V68.54H8.45016V67.04ZM19.0841 78.02C19.0041 74.1 12.6441 75.52 12.6441 72.92C12.6441 72.04 13.4441 71.4 14.7841 71.4C16.2441 71.4 17.0841 72.2 17.1641 73.3H18.9841C18.8641 71.16 17.2641 69.86 14.8441 69.86C12.4041 69.86 10.8241 71.24 10.8241 72.92C10.8241 77 17.3041 75.58 17.3041 78.02C17.3041 78.92 16.5041 79.64 15.0641 79.64C13.5241 79.64 12.5841 78.84 12.4841 77.78H10.6041C10.7241 79.78 12.5241 81.18 15.0841 81.18C17.5041 81.18 19.0841 79.82 19.0841 78.02ZM20.9733 75.5C20.9733 78.98 23.1933 81.18 26.3133 81.18C29.0333 81.18 30.8133 79.66 31.3733 77.48H29.4133C29.0133 78.86 27.9333 79.64 26.3133 79.64C24.3133 79.64 22.8333 78.22 22.8333 75.5C22.8333 72.82 24.3133 71.4 26.3133 71.4C27.9333 71.4 29.0333 72.24 29.4133 73.56H31.3733C30.8133 71.26 29.0333 69.86 26.3133 69.86C23.1933 69.86 20.9733 72.06 20.9733 75.5ZM44.2017 75.5C44.2017 72.04 41.7817 69.86 38.6617 69.86C35.5617 69.86 33.1217 72.04 33.1217 75.5C33.1217 78.98 35.4817 81.18 38.5817 81.18C41.7017 81.18 44.2017 78.98 44.2017 75.5ZM34.9817 75.5C34.9817 72.74 36.7217 71.44 38.6417 71.44C40.5217 71.44 42.3417 72.74 42.3417 75.5C42.3417 78.28 40.4817 79.58 38.5817 79.58C36.6817 79.58 34.9817 78.28 34.9817 75.5ZM46.5947 81H48.4147V66.2H46.5947V81ZM51.5166 81H53.3366V74.94C53.3366 72.58 54.6166 71.42 56.4766 71.42C58.3166 71.42 59.5366 72.56 59.5366 74.8V81H61.3366V74.54C61.3366 71.4 59.3966 69.84 56.9566 69.84C55.4166 69.84 54.0566 70.46 53.3366 71.62V66.2H51.5166V81ZM63.6295 75.48C63.6295 78.88 65.8895 81.18 68.8095 81.18C70.8295 81.18 72.2495 80.14 72.9095 78.96V81H74.7495V70.04H72.9095V72.04C72.2695 70.9 70.8695 69.86 68.8295 69.86C65.8895 69.86 63.6295 72.06 63.6295 75.48ZM72.9095 75.5C72.9095 78.08 71.1895 79.58 69.1895 79.58C67.1895 79.58 65.4895 78.06 65.4895 75.48C65.4895 72.9 67.1895 71.44 69.1895 71.44C71.1895 71.44 72.9095 72.96 72.9095 75.5ZM93.5572 75.5C93.5572 72.04 91.1372 69.86 88.0172 69.86C84.9172 69.86 82.4772 72.04 82.4772 75.5C82.4772 78.98 84.8372 81.18 87.9372 81.18C91.0572 81.18 93.5572 78.98 93.5572 75.5ZM84.3372 75.5C84.3372 72.74 86.0772 71.44 87.9972 71.44C89.8772 71.44 91.6972 72.74 91.6972 75.5C91.6972 78.28 89.8372 79.58 87.9372 79.58C86.0372 79.58 84.3372 78.28 84.3372 75.5ZM103.102 72.06V70.04H101.282V86.2H103.102V78.98C103.782 80.1 105.202 81.18 107.202 81.18C110.142 81.18 112.402 78.88 112.402 75.48C112.402 72.06 110.142 69.86 107.202 69.86C105.202 69.86 103.762 70.9 103.102 72.06ZM110.542 75.48C110.542 78.06 108.842 79.58 106.822 79.58C104.842 79.58 103.102 78.08 103.102 75.5C103.102 72.96 104.842 71.44 106.822 71.44C108.842 71.44 110.542 72.9 110.542 75.48ZM114.798 81H116.618V66.2H114.798V81ZM119.04 75.48C119.04 78.88 121.3 81.18 124.22 81.18C126.24 81.18 127.66 80.14 128.32 78.96V81H130.16V70.04H128.32V72.04C127.68 70.9 126.28 69.86 124.24 69.86C121.3 69.86 119.04 72.06 119.04 75.48ZM128.32 75.5C128.32 78.08 126.6 79.58 124.6 79.58C122.6 79.58 120.9 78.06 120.9 75.48C120.9 72.9 122.6 71.44 124.6 71.44C126.6 71.44 128.32 72.96 128.32 75.5ZM141.255 81H143.055V74.54C143.055 71.4 141.115 69.84 138.575 69.84C137.095 69.84 135.775 70.46 135.055 71.6V70.04H133.235V81H135.055V74.94C135.055 72.58 136.335 71.42 138.195 71.42C140.035 71.42 141.255 72.56 141.255 74.8V81ZM156.428 75.5C156.428 72.04 154.008 69.86 150.888 69.86C147.788 69.86 145.348 72.04 145.348 75.5C145.348 78.98 147.708 81.18 150.808 81.18C153.928 81.18 156.428 78.98 156.428 75.5ZM147.208 75.5C147.208 72.74 148.948 71.44 150.868 71.44C152.748 71.44 154.568 72.74 154.568 75.5C154.568 78.28 152.708 79.58 150.808 79.58C148.908 79.58 147.208 78.28 147.208 75.5ZM163.473 75.48C163.473 78.88 165.733 81.18 168.633 81.18C170.673 81.18 172.133 80.1 172.753 78.98V86.2H174.593V70.04H172.753V72.04C172.133 70.9 170.693 69.86 168.693 69.86C165.733 69.86 163.473 72.06 163.473 75.48ZM172.753 75.5C172.753 78.08 171.033 79.58 169.033 79.58C167.033 79.58 165.333 78.06 165.333 75.48C165.333 72.9 167.033 71.44 169.033 71.44C171.033 71.44 172.753 72.96 172.753 75.5ZM187.389 70.04H185.569V76.06C185.569 78.42 184.309 79.58 182.429 79.58C180.589 79.58 179.369 78.44 179.369 76.22V70.04H177.569V76.46C177.569 79.6 179.549 81.16 182.069 81.16C183.529 81.16 184.869 80.52 185.569 79.38V81H187.389V70.04ZM195.122 71.4C197.002 71.4 198.602 72.58 198.582 74.72H191.662C191.862 72.58 193.342 71.4 195.122 71.4ZM200.242 77.62H198.282C197.882 78.8 196.842 79.64 195.202 79.64C193.342 79.64 191.782 78.42 191.642 76.2H200.402C200.442 75.82 200.462 75.5 200.462 75.1C200.462 72.1 198.382 69.86 195.202 69.86C192.002 69.86 189.782 72.04 189.782 75.5C189.782 78.98 192.082 81.18 195.202 81.18C197.922 81.18 199.682 79.62 200.242 77.62ZM224.016 81H225.816V74.54C225.816 71.4 223.876 69.84 221.376 69.84C219.696 69.84 218.136 70.7 217.496 72.28C216.776 70.64 215.276 69.84 213.476 69.84C212.036 69.84 210.736 70.46 210.016 71.62V70.04H208.196V81H210.016V74.96C210.016 72.6 211.276 71.42 213.116 71.42C214.916 71.42 216.116 72.56 216.116 74.8V81H217.916V74.96C217.916 72.6 219.176 71.42 221.016 71.42C222.816 71.42 224.016 72.56 224.016 74.8V81ZM233.462 71.4C235.342 71.4 236.942 72.58 236.922 74.72H230.002C230.202 72.58 231.682 71.4 233.462 71.4ZM238.582 77.62H236.622C236.222 78.8 235.182 79.64 233.542 79.64C231.682 79.64 230.122 78.42 229.982 76.2H238.742C238.782 75.82 238.802 75.5 238.802 75.1C238.802 72.1 236.722 69.86 233.542 69.86C230.342 69.86 228.122 72.04 228.122 75.5C228.122 78.98 230.422 81.18 233.542 81.18C236.262 81.18 238.022 79.62 238.582 77.62ZM241.204 81H243.024V66.2H241.204V81ZM246.126 81H247.946V74.94C247.946 72.58 249.226 71.42 251.086 71.42C252.926 71.42 254.146 72.56 254.146 74.8V81H255.946V74.54C255.946 71.4 254.006 69.84 251.566 69.84C250.026 69.84 248.666 70.46 247.946 71.62V66.2H246.126V81ZM269.319 75.5C269.319 72.04 266.899 69.86 263.779 69.86C260.679 69.86 258.239 72.04 258.239 75.5C258.239 78.98 260.599 81.18 263.699 81.18C266.819 81.18 269.319 78.98 269.319 75.5ZM260.099 75.5C260.099 72.74 261.839 71.44 263.759 71.44C265.639 71.44 267.459 72.74 267.459 75.5C267.459 78.28 265.599 79.58 263.699 79.58C261.799 79.58 260.099 78.28 260.099 75.5ZM273.532 75.04C273.532 72.5 274.852 71.72 276.592 71.72H277.072V69.84C275.332 69.84 274.152 70.6 273.532 71.82V70.04H271.712V81H273.532V75.04ZM292.385 78.02C292.305 74.1 285.945 75.52 285.945 72.92C285.945 72.04 286.745 71.4 288.085 71.4C289.545 71.4 290.385 72.2 290.465 73.3H292.285C292.165 71.16 290.565 69.86 288.145 69.86C285.705 69.86 284.125 71.24 284.125 72.92C284.125 77 290.605 75.58 290.605 78.02C290.605 78.92 289.805 79.64 288.365 79.64C286.825 79.64 285.885 78.84 285.785 77.78H283.905C284.025 79.78 285.825 81.18 288.385 81.18C290.805 81.18 292.385 79.82 292.385 78.02ZM299.614 71.4C301.494 71.4 303.094 72.58 303.074 74.72H296.154C296.354 72.58 297.834 71.4 299.614 71.4ZM304.734 77.62H302.774C302.374 78.8 301.334 79.64 299.694 79.64C297.834 79.64 296.274 78.42 296.134 76.2H304.894C304.934 75.82 304.954 75.5 304.954 75.1C304.954 72.1 302.874 69.86 299.694 69.86C296.494 69.86 294.274 72.04 294.274 75.5C294.274 78.98 296.574 81.18 299.694 81.18C302.414 81.18 304.174 79.62 304.734 77.62ZM317.348 71.4C319.228 71.4 320.828 72.58 320.808 74.72H313.888C314.088 72.58 315.568 71.4 317.348 71.4ZM322.468 77.62H320.508C320.108 78.8 319.068 79.64 317.428 79.64C315.568 79.64 314.008 78.42 313.868 76.2H322.628C322.668 75.82 322.688 75.5 322.688 75.1C322.688 72.1 320.608 69.86 317.428 69.86C314.228 69.86 312.008 72.04 312.008 75.5C312.008 78.98 314.308 81.18 317.428 81.18C320.148 81.18 321.908 79.62 322.468 77.62ZM333.111 81H334.911V74.54C334.911 71.4 332.971 69.84 330.431 69.84C328.951 69.84 327.631 70.46 326.911 71.6V70.04H325.091V81H326.911V74.94C326.911 72.58 328.191 71.42 330.051 71.42C331.891 71.42 333.111 72.56 333.111 74.8V81ZM337.204 75.5C337.204 78.98 339.424 81.18 342.544 81.18C345.264 81.18 347.044 79.66 347.604 77.48H345.644C345.244 78.86 344.164 79.64 342.544 79.64C340.544 79.64 339.064 78.22 339.064 75.5C339.064 72.82 340.544 71.4 342.544 71.4C344.164 71.4 345.264 72.24 345.644 73.56H347.604C347.044 71.26 345.264 69.86 342.544 69.86C339.424 69.86 337.204 72.06 337.204 75.5ZM349.352 75.48C349.352 78.88 351.612 81.18 354.532 81.18C356.552 81.18 357.972 80.14 358.632 78.96V81H360.472V70.04H358.632V72.04C357.992 70.9 356.592 69.86 354.552 69.86C351.612 69.86 349.352 72.06 349.352 75.48ZM358.632 75.5C358.632 78.08 356.912 79.58 354.912 79.58C352.912 79.58 351.212 78.06 351.212 75.48C351.212 72.9 352.912 71.44 354.912 71.44C356.912 71.44 358.632 72.96 358.632 75.5ZM363.548 81H365.368V70.04H363.548V81ZM364.488 68.26C365.148 68.26 365.688 67.72 365.688 67.02C365.688 66.32 365.148 65.78 364.488 65.78C363.788 65.78 363.248 66.32 363.248 67.02C363.248 67.72 363.788 68.26 364.488 68.26ZM374.19 81H376.25L372.71 75.46L376.23 70.04H374.33L371.85 74.1L369.25 70.04H367.19L370.73 75.56L367.19 81H369.09L371.59 76.92L374.19 81ZM377.36 75.48C377.36 78.88 379.62 81.18 382.54 81.18C384.56 81.18 385.98 80.14 386.64 78.96V81H388.48V70.04H386.64V72.04C386 70.9 384.6 69.86 382.56 69.86C379.62 69.86 377.36 72.06 377.36 75.48ZM386.64 75.5C386.64 78.08 384.92 79.58 382.92 79.58C380.92 79.58 379.22 78.06 379.22 75.48C379.22 72.9 380.92 71.44 382.92 71.44C384.92 71.44 386.64 72.96 386.64 75.5ZM404.908 81H406.708V74.54C406.708 71.4 404.768 69.84 402.228 69.84C400.748 69.84 399.428 70.46 398.708 71.6V70.04H396.888V81H398.708V74.94C398.708 72.58 399.988 71.42 401.848 71.42C403.688 71.42 404.908 72.56 404.908 74.8V81ZM409.001 75.48C409.001 78.88 411.261 81.18 414.181 81.18C416.201 81.18 417.621 80.14 418.281 78.96V81H420.121V70.04H418.281V72.04C417.641 70.9 416.241 69.86 414.201 69.86C411.261 69.86 409.001 72.06 409.001 75.48ZM418.281 75.5C418.281 78.08 416.561 79.58 414.561 79.58C412.561 79.58 410.861 78.06 410.861 75.48C410.861 72.9 412.561 71.44 414.561 71.44C416.561 71.44 418.281 72.96 418.281 75.5ZM436.408 78.02C436.328 74.1 429.968 75.52 429.968 72.92C429.968 72.04 430.768 71.4 432.108 71.4C433.568 71.4 434.408 72.2 434.488 73.3H436.308C436.188 71.16 434.588 69.86 432.168 69.86C429.728 69.86 428.148 71.24 428.148 72.92C428.148 77 434.628 75.58 434.628 78.02C434.628 78.92 433.828 79.64 432.388 79.64C430.848 79.64 429.908 78.84 429.808 77.78H427.928C428.048 79.78 429.848 81.18 432.408 81.18C434.828 81.18 436.408 79.82 436.408 78.02ZM448.698 70.04H446.878V76.06C446.878 78.42 445.618 79.58 443.738 79.58C441.898 79.58 440.678 78.44 440.678 76.22V70.04H438.878V76.46C438.878 79.6 440.858 81.16 443.378 81.16C444.838 81.16 446.178 80.52 446.878 79.38V81H448.698V70.04ZM451.09 75.48C451.09 78.88 453.35 81.18 456.27 81.18C458.29 81.18 459.71 80.14 460.37 78.96V81H462.21V70.04H460.37V72.04C459.73 70.9 458.33 69.86 456.29 69.86C453.35 69.86 451.09 72.06 451.09 75.48ZM460.37 75.5C460.37 78.08 458.65 79.58 456.65 79.58C454.65 79.58 452.95 78.06 452.95 75.48C452.95 72.9 454.65 71.44 456.65 71.44C458.65 71.44 460.37 72.96 460.37 75.5ZM475.278 71.4C477.158 71.4 478.758 72.58 478.738 74.72H471.818C472.018 72.58 473.498 71.4 475.278 71.4ZM480.398 77.62H478.438C478.038 78.8 476.998 79.64 475.358 79.64C473.498 79.64 471.938 78.42 471.798 76.2H480.558C480.598 75.82 480.618 75.5 480.618 75.1C480.618 72.1 478.538 69.86 475.358 69.86C472.158 69.86 469.938 72.04 469.938 75.5C469.938 78.98 472.238 81.18 475.358 81.18C478.078 81.18 479.838 79.62 480.398 77.62ZM498.84 81H500.64V74.54C500.64 71.4 498.7 69.84 496.2 69.84C494.52 69.84 492.96 70.7 492.32 72.28C491.6 70.64 490.1 69.84 488.3 69.84C486.86 69.84 485.56 70.46 484.84 71.62V70.04H483.02V81H484.84V74.96C484.84 72.6 486.1 71.42 487.94 71.42C489.74 71.42 490.94 72.56 490.94 74.8V81H492.74V74.96C492.74 72.6 494 71.42 495.84 71.42C497.64 71.42 498.84 72.56 498.84 74.8V81ZM505.446 72.06V70.04H503.626V86.2H505.446V78.98C506.126 80.1 507.546 81.18 509.546 81.18C512.486 81.18 514.746 78.88 514.746 75.48C514.746 72.06 512.486 69.86 509.546 69.86C507.546 69.86 506.106 70.9 505.446 72.06ZM512.886 75.48C512.886 78.06 511.186 79.58 509.166 79.58C507.186 79.58 505.446 78.08 505.446 75.5C505.446 72.96 507.186 71.44 509.166 71.44C511.186 71.44 512.886 72.9 512.886 75.48ZM518.962 75.04C518.962 72.5 520.282 71.72 522.022 71.72H522.502V69.84C520.762 69.84 519.582 70.6 518.962 71.82V70.04H517.142V81H518.962V75.04ZM529.263 71.4C531.143 71.4 532.743 72.58 532.723 74.72H525.803C526.002 72.58 527.483 71.4 529.263 71.4ZM534.383 77.62H532.423C532.023 78.8 530.983 79.64 529.343 79.64C527.483 79.64 525.923 78.42 525.783 76.2H534.543C534.583 75.82 534.603 75.5 534.603 75.1C534.603 72.1 532.523 69.86 529.343 69.86C526.143 69.86 523.923 72.04 523.923 75.5C523.923 78.98 526.223 81.18 529.343 81.18C532.063 81.18 533.823 79.62 534.383 77.62ZM544.885 78.02C544.805 74.1 538.445 75.52 538.445 72.92C538.445 72.04 539.245 71.4 540.585 71.4C542.045 71.4 542.885 72.2 542.965 73.3H544.785C544.665 71.16 543.065 69.86 540.645 69.86C538.205 69.86 536.625 71.24 536.625 72.92C536.625 77 543.105 75.58 543.105 78.02C543.105 78.92 542.305 79.64 540.865 79.64C539.325 79.64 538.385 78.84 538.285 77.78H536.405C536.525 79.78 538.325 81.18 540.885 81.18C543.305 81.18 544.885 79.82 544.885 78.02ZM546.774 75.48C546.774 78.88 549.034 81.18 551.954 81.18C553.974 81.18 555.394 80.14 556.054 78.96V81H557.894V70.04H556.054V72.04C555.414 70.9 554.014 69.86 551.974 69.86C549.034 69.86 546.774 72.06 546.774 75.48ZM556.054 75.5C556.054 78.08 554.334 79.58 552.334 79.58C550.334 79.58 548.634 78.06 548.634 75.48C548.634 72.9 550.334 71.44 552.334 71.44C554.334 71.44 556.054 72.96 556.054 75.5ZM570.962 71.4C572.842 71.4 574.442 72.58 574.422 74.72H567.502C567.702 72.58 569.182 71.4 570.962 71.4ZM576.082 77.62H574.122C573.722 78.8 572.682 79.64 571.042 79.64C569.182 79.64 567.622 78.42 567.482 76.2H576.242C576.282 75.82 576.302 75.5 576.302 75.1C576.302 72.1 574.222 69.86 571.042 69.86C567.842 69.86 565.622 72.04 565.622 75.5C565.622 78.98 567.922 81.18 571.042 81.18C573.762 81.18 575.522 79.62 576.082 77.62ZM589.708 81H591.528V71.54H593.828V70.04H591.528V69.26C591.528 67.84 592.068 67.24 593.708 67.24V65.72C590.908 65.72 589.708 66.82 589.708 69.26V70.04H588.288V71.54H589.708V81ZM595.27 75.48C595.27 78.88 597.53 81.18 600.45 81.18C602.47 81.18 603.89 80.14 604.55 78.96V81H606.39V70.04H604.55V72.04C603.91 70.9 602.51 69.86 600.47 69.86C597.53 69.86 595.27 72.06 595.27 75.48ZM604.55 75.5C604.55 78.08 602.83 79.58 600.83 79.58C598.83 79.58 597.13 78.06 597.13 75.48C597.13 72.9 598.83 71.44 600.83 71.44C602.83 71.44 604.55 72.96 604.55 75.5ZM608.786 75.5C608.786 78.72 610.706 80.86 613.466 81.14V83.28H614.466C615.326 83.28 615.746 83.52 615.746 84.14C615.746 84.78 615.326 85.02 614.466 85.02H612.526V86.2H614.826C616.246 86.2 617.266 85.4 617.266 84.14C617.266 82.82 616.226 82.14 614.686 82.16V81.16C617.086 80.96 618.666 79.5 619.186 77.48H617.226C616.826 78.86 615.746 79.64 614.126 79.64C612.126 79.64 610.646 78.22 610.646 75.5C610.646 72.82 612.126 71.4 614.126 71.4C615.746 71.4 616.846 72.24 617.226 73.56H619.186C618.626 71.26 616.846 69.86 614.126 69.86C611.006 69.86 608.786 72.06 608.786 75.5ZM620.934 75.48C620.934 78.88 623.194 81.18 626.114 81.18C628.134 81.18 629.554 80.14 630.214 78.96V81H632.054V70.04H630.214V72.04C629.574 70.9 628.174 69.86 626.134 69.86C623.194 69.86 620.934 72.06 620.934 75.48ZM630.214 75.5C630.214 78.08 628.494 79.58 626.494 79.58C624.494 79.58 622.794 78.06 622.794 75.48C622.794 72.9 624.494 71.44 626.494 71.44C628.494 71.44 630.214 72.96 630.214 75.5ZM34.5235 108.02C34.4435 104.1 28.0835 105.52 28.0835 102.92C28.0835 102.04 28.8835 101.4 30.2235 101.4C31.6835 101.4 32.5235 102.2 32.6035 103.3H34.4235C34.3035 101.16 32.7035 99.86 30.2835 99.86C27.8435 99.86 26.2635 101.24 26.2635 102.92C26.2635 107 32.7435 105.58 32.7435 108.02C32.7435 108.92 31.9435 109.64 30.5035 109.64C28.9635 109.64 28.0235 108.84 27.9235 107.78H26.0435C26.1635 109.78 27.9635 111.18 30.5235 111.18C32.9435 111.18 34.5235 109.82 34.5235 108.02ZM46.8127 100.04H44.9927V106.06C44.9927 108.42 43.7327 109.58 41.8527 109.58C40.0127 109.58 38.7927 108.44 38.7927 106.22V100.04H36.9927V106.46C36.9927 109.6 38.9727 111.16 41.4927 111.16C42.9527 111.16 44.2927 110.52 44.9927 109.38V111H46.8127V100.04ZM49.2057 105.48C49.2057 108.88 51.4657 111.18 54.3857 111.18C56.4057 111.18 57.8257 110.14 58.4857 108.96V111H60.3257V100.04H58.4857V102.04C57.8457 100.9 56.4457 99.86 54.4057 99.86C51.4657 99.86 49.2057 102.06 49.2057 105.48ZM58.4857 105.5C58.4857 108.08 56.7657 109.58 54.7657 109.58C52.7657 109.58 51.0657 108.06 51.0657 105.48C51.0657 102.9 52.7657 101.44 54.7657 101.44C56.7657 101.44 58.4857 102.96 58.4857 105.5ZM68.0534 105.48C68.0534 108.88 70.3134 111.18 73.2334 111.18C75.2534 111.18 76.6734 110.14 77.3334 108.96V111H79.1734V100.04H77.3334V102.04C76.6934 100.9 75.2934 99.86 73.2534 99.86C70.3134 99.86 68.0534 102.06 68.0534 105.48ZM77.3334 105.5C77.3334 108.08 75.6134 109.58 73.6134 109.58C71.6134 109.58 69.9134 108.06 69.9134 105.48C69.9134 102.9 71.6134 101.44 73.6134 101.44C75.6134 101.44 77.3334 102.96 77.3334 105.5ZM90.129 108.02C90.049 104.1 83.689 105.52 83.689 102.92C83.689 102.04 84.489 101.4 85.829 101.4C87.289 101.4 88.129 102.2 88.209 103.3H90.029C89.909 101.16 88.309 99.86 85.889 99.86C83.449 99.86 81.869 101.24 81.869 102.92C81.869 107 88.349 105.58 88.349 108.02C88.349 108.92 87.549 109.64 86.109 109.64C84.569 109.64 83.629 108.84 83.529 107.78H81.649C81.769 109.78 83.569 111.18 86.129 111.18C88.549 111.18 90.129 109.82 90.129 108.02ZM100.578 108.02C100.498 104.1 94.1382 105.52 94.1382 102.92C94.1382 102.04 94.9382 101.4 96.2782 101.4C97.7382 101.4 98.5782 102.2 98.6582 103.3H100.478C100.358 101.16 98.7582 99.86 96.3382 99.86C93.8982 99.86 92.3182 101.24 92.3182 102.92C92.3182 107 98.7982 105.58 98.7982 108.02C98.7982 108.92 97.9982 109.64 96.5582 109.64C95.0182 109.64 94.0782 108.84 93.9782 107.78H92.0982C92.2182 109.78 94.0182 111.18 96.5782 111.18C98.9982 111.18 100.578 109.82 100.578 108.02ZM103.147 111H104.967V100.04H103.147V111ZM104.087 98.26C104.747 98.26 105.287 97.72 105.287 97.02C105.287 96.32 104.747 95.78 104.087 95.78C103.387 95.78 102.847 96.32 102.847 97.02C102.847 97.72 103.387 98.26 104.087 98.26ZM116.089 111H117.889V104.54C117.889 101.4 115.949 99.84 113.409 99.84C111.929 99.84 110.609 100.46 109.889 101.6V100.04H108.069V111H109.889V104.94C109.889 102.58 111.169 101.42 113.029 101.42C114.869 101.42 116.089 102.56 116.089 104.8V111ZM120.182 105.48C120.182 108.88 122.442 111.18 125.362 111.18C127.382 111.18 128.802 110.14 129.462 108.96V111H131.302V100.04H129.462V102.04C128.822 100.9 127.422 99.86 125.382 99.86C122.442 99.86 120.182 102.06 120.182 105.48ZM129.462 105.5C129.462 108.08 127.742 109.58 125.742 109.58C123.742 109.58 122.042 108.06 122.042 105.48C122.042 102.9 123.742 101.44 125.742 101.44C127.742 101.44 129.462 102.96 129.462 105.5ZM134.778 108C134.778 110.2 135.878 111 137.818 111H139.458V109.46H138.118C136.998 109.46 136.598 109.08 136.598 108V101.54H139.458V100.04H136.598V97.28H134.778V100.04H133.358V101.54H134.778V108ZM151.383 100.04H149.563V106.06C149.563 108.42 148.303 109.58 146.423 109.58C144.583 109.58 143.363 108.44 143.363 106.22V100.04H141.563V106.46C141.563 109.6 143.543 111.16 146.063 111.16C147.523 111.16 148.863 110.52 149.563 109.38V111H151.383V100.04ZM156.276 105.04C156.276 102.5 157.596 101.72 159.336 101.72H159.816V99.84C158.076 99.84 156.896 100.6 156.276 101.82V100.04H154.456V111H156.276V105.04ZM161.237 105.48C161.237 108.88 163.497 111.18 166.417 111.18C168.437 111.18 169.857 110.14 170.517 108.96V111H172.357V100.04H170.517V102.04C169.877 100.9 168.477 99.86 166.437 99.86C163.497 99.86 161.237 102.06 161.237 105.48ZM170.517 105.5C170.517 108.08 168.797 109.58 166.797 109.58C164.797 109.58 163.097 108.06 163.097 105.48C163.097 102.9 164.797 101.44 166.797 101.44C168.797 101.44 170.517 102.96 170.517 105.5ZM173.853 113.86H175.073L177.313 108.48H175.313L173.853 113.86ZM184.049 105.48C184.049 108.88 186.309 111.18 189.249 111.18C191.249 111.18 192.669 110.16 193.329 108.94V111H195.169V96.2H193.329V102C192.569 100.74 190.989 99.86 189.269 99.86C186.309 99.86 184.049 102.06 184.049 105.48ZM193.329 105.5C193.329 108.08 191.609 109.58 189.609 109.58C187.609 109.58 185.909 108.06 185.909 105.48C185.909 102.9 187.609 101.44 189.609 101.44C191.609 101.44 193.329 102.96 193.329 105.5ZM202.905 101.4C204.785 101.4 206.385 102.58 206.365 104.72H199.445C199.645 102.58 201.125 101.4 202.905 101.4ZM208.025 107.62H206.065C205.665 108.8 204.625 109.64 202.985 109.64C201.125 109.64 199.565 108.42 199.425 106.2H208.185C208.225 105.82 208.245 105.5 208.245 105.1C208.245 102.1 206.165 99.86 202.985 99.86C199.785 99.86 197.565 102.04 197.565 105.5C197.565 108.98 199.865 111.18 202.985 111.18C205.705 111.18 207.465 109.62 208.025 107.62ZM218.667 111H220.467V104.54C220.467 101.4 218.527 99.84 215.987 99.84C214.507 99.84 213.187 100.46 212.467 101.6V100.04H210.647V111H212.467V104.94C212.467 102.58 213.747 101.42 215.607 101.42C217.447 101.42 218.667 102.56 218.667 104.8V111ZM223.84 108C223.84 110.2 224.94 111 226.88 111H228.52V109.46H227.18C226.06 109.46 225.66 109.08 225.66 108V101.54H228.52V100.04H225.66V97.28H223.84V100.04H222.42V101.54H223.84V108ZM232.546 105.04C232.546 102.5 233.866 101.72 235.606 101.72H236.086V99.84C234.346 99.84 233.166 100.6 232.546 101.82V100.04H230.726V111H232.546V105.04ZM248.586 105.5C248.586 102.04 246.166 99.86 243.046 99.86C239.946 99.86 237.506 102.04 237.506 105.5C237.506 108.98 239.866 111.18 242.966 111.18C246.086 111.18 248.586 108.98 248.586 105.5ZM239.366 105.5C239.366 102.74 241.106 101.44 243.026 101.44C244.906 101.44 246.726 102.74 246.726 105.5C246.726 108.28 244.866 109.58 242.966 109.58C241.066 109.58 239.366 108.28 239.366 105.5ZM255.631 105.48C255.631 108.88 257.891 111.18 260.831 111.18C262.831 111.18 264.251 110.16 264.911 108.94V111H266.751V96.2H264.911V102C264.151 100.74 262.571 99.86 260.851 99.86C257.891 99.86 255.631 102.06 255.631 105.48ZM264.911 105.5C264.911 108.08 263.191 109.58 261.191 109.58C259.191 109.58 257.491 108.06 257.491 105.48C257.491 102.9 259.191 101.44 261.191 101.44C263.191 101.44 264.911 102.96 264.911 105.5ZM274.487 101.4C276.367 101.4 277.967 102.58 277.947 104.72H271.027C271.227 102.58 272.707 101.4 274.487 101.4ZM279.607 107.62H277.647C277.247 108.8 276.207 109.64 274.567 109.64C272.707 109.64 271.147 108.42 271.007 106.2H279.767C279.807 105.82 279.827 105.5 279.827 105.1C279.827 102.1 277.747 99.86 274.567 99.86C271.367 99.86 269.147 102.04 269.147 105.5C269.147 108.98 271.447 111.18 274.567 111.18C277.287 111.18 279.047 109.62 279.607 107.62ZM286.681 96.58V98.14H294.401L288.761 111H290.601L296.161 97.96V96.58H286.681ZM297.959 110.84H307.579V109.32H300.699C303.279 107.22 307.159 104.16 307.159 100.56C307.159 97.88 305.399 96.28 302.679 96.28C300.079 96.28 298.139 97.88 298.019 100.96H299.779C299.859 99.14 300.819 97.84 302.699 97.84C304.659 97.84 305.359 99.04 305.359 100.64C305.359 103.6 301.759 106.48 297.959 109.54V110.84ZM309.983 111H311.803V104.94C311.803 102.58 313.083 101.42 314.943 101.42C316.783 101.42 318.003 102.56 318.003 104.8V111H319.803V104.54C319.803 101.4 317.863 99.84 315.423 99.84C313.883 99.84 312.523 100.46 311.803 101.62V96.2H309.983V111ZM328.108 111H329.928V100.04H328.108V111ZM329.048 98.26C329.708 98.26 330.248 97.72 330.248 97.02C330.248 96.32 329.708 95.78 329.048 95.78C328.348 95.78 327.808 96.32 327.808 97.02C327.808 97.72 328.348 98.26 329.048 98.26ZM334.85 105.04C334.85 102.5 336.17 101.72 337.91 101.72H338.39V99.84C336.65 99.84 335.47 100.6 334.85 101.82V100.04H333.03V111H334.85V105.04ZM345.151 101.4C347.031 101.4 348.631 102.58 348.611 104.72H341.691C341.891 102.58 343.371 101.4 345.151 101.4ZM350.271 107.62H348.311C347.911 108.8 346.871 109.64 345.231 109.64C343.371 109.64 341.811 108.42 341.671 106.2H350.431C350.471 105.82 350.491 105.5 350.491 105.1C350.491 102.1 348.411 99.86 345.231 99.86C342.031 99.86 339.811 102.04 339.811 105.5C339.811 108.98 342.111 111.18 345.231 111.18C347.951 111.18 349.711 109.62 350.271 107.62ZM368.714 111H370.514V104.54C370.514 101.4 368.574 99.84 366.074 99.84C364.394 99.84 362.834 100.7 362.194 102.28C361.474 100.64 359.974 99.84 358.174 99.84C356.734 99.84 355.434 100.46 354.714 101.62V100.04H352.894V111H354.714V104.96C354.714 102.6 355.974 101.42 357.814 101.42C359.614 101.42 360.814 102.56 360.814 104.8V111H362.614V104.96C362.614 102.6 363.874 101.42 365.714 101.42C367.514 101.42 368.714 102.56 368.714 104.8V111ZM383.899 105.5C383.899 102.04 381.479 99.86 378.359 99.86C375.259 99.86 372.819 102.04 372.819 105.5C372.819 108.98 375.179 111.18 378.279 111.18C381.399 111.18 383.899 108.98 383.899 105.5ZM374.679 105.5C374.679 102.74 376.419 101.44 378.339 101.44C380.219 101.44 382.039 102.74 382.039 105.5C382.039 108.28 380.179 109.58 378.279 109.58C376.379 109.58 374.679 108.28 374.679 105.5ZM394.172 108.02C394.092 104.1 387.732 105.52 387.732 102.92C387.732 102.04 388.532 101.4 389.872 101.4C391.332 101.4 392.172 102.2 392.252 103.3H394.072C393.952 101.16 392.352 99.86 389.932 99.86C387.492 99.86 385.912 101.24 385.912 102.92C385.912 107 392.392 105.58 392.392 108.02C392.392 108.92 391.592 109.64 390.152 109.64C388.612 109.64 387.672 108.84 387.572 107.78H385.692C385.812 109.78 387.612 111.18 390.172 111.18C392.592 111.18 394.172 109.82 394.172 108.02ZM402.073 111H403.893V96.2H402.073V111ZM406.995 111H408.815V100.04H406.995V111ZM407.935 98.26C408.595 98.26 409.135 97.72 409.135 97.02C409.135 96.32 408.595 95.78 407.935 95.78C407.235 95.78 406.695 96.32 406.695 97.02C406.695 97.72 407.235 98.26 407.935 98.26ZM413.737 102.08V96.2H411.917V111H413.737V108.98C414.417 110.18 415.837 111.18 417.837 111.18C420.777 111.18 423.037 108.88 423.037 105.48C423.037 102.06 420.797 99.86 417.837 99.86C415.897 99.86 414.437 100.86 413.737 102.08ZM421.177 105.48C421.177 108.06 419.477 109.58 417.457 109.58C415.477 109.58 413.737 108.08 413.737 105.5C413.737 102.96 415.477 101.44 417.457 101.44C419.477 101.44 421.177 102.9 421.177 105.48ZM430.093 101.4C431.973 101.4 433.573 102.58 433.553 104.72H426.633C426.833 102.58 428.313 101.4 430.093 101.4ZM435.213 107.62H433.253C432.853 108.8 431.813 109.64 430.173 109.64C428.313 109.64 426.753 108.42 426.613 106.2H435.373C435.413 105.82 435.433 105.5 435.433 105.1C435.433 102.1 433.353 99.86 430.173 99.86C426.973 99.86 424.753 102.04 424.753 105.5C424.753 108.98 427.053 111.18 430.173 111.18C432.893 111.18 434.653 109.62 435.213 107.62ZM439.655 105.04C439.655 102.5 440.975 101.72 442.715 101.72H443.195V99.84C441.455 99.84 440.275 100.6 439.655 101.82V100.04H437.835V111H439.655V105.04ZM444.616 105.48C444.616 108.88 446.876 111.18 449.796 111.18C451.816 111.18 453.236 110.14 453.896 108.96V111H455.736V100.04H453.896V102.04C453.256 100.9 451.856 99.86 449.816 99.86C446.876 99.86 444.616 102.06 444.616 105.48ZM453.896 105.5C453.896 108.08 452.176 109.58 450.176 109.58C448.176 109.58 446.476 108.06 446.476 105.48C446.476 102.9 448.176 101.44 450.176 101.44C452.176 101.44 453.896 102.96 453.896 105.5ZM460.631 105.04C460.631 102.5 461.951 101.72 463.691 101.72H464.171V99.84C462.431 99.84 461.251 100.6 460.631 101.82V100.04H458.811V111H460.631V105.04ZM479.484 108.02C479.404 104.1 473.044 105.52 473.044 102.92C473.044 102.04 473.844 101.4 475.184 101.4C476.644 101.4 477.484 102.2 477.564 103.3H479.384C479.264 101.16 477.664 99.86 475.244 99.86C472.804 99.86 471.224 101.24 471.224 102.92C471.224 107 477.704 105.58 477.704 108.02C477.704 108.92 476.904 109.64 475.464 109.64C473.924 109.64 472.984 108.84 472.884 107.78H471.004C471.124 109.78 472.924 111.18 475.484 111.18C477.904 111.18 479.484 109.82 479.484 108.02ZM486.714 101.4C488.594 101.4 490.194 102.58 490.174 104.72H483.254C483.454 102.58 484.934 101.4 486.714 101.4ZM491.834 107.62H489.874C489.474 108.8 488.434 109.64 486.794 109.64C484.934 109.64 483.374 108.42 483.234 106.2H491.994C492.034 105.82 492.054 105.5 492.054 105.1C492.054 102.1 489.974 99.86 486.794 99.86C483.594 99.86 481.374 102.04 481.374 105.5C481.374 108.98 483.674 111.18 486.794 111.18C489.514 111.18 491.274 109.62 491.834 107.62ZM504.176 100.04H502.356V106.06C502.356 108.42 501.096 109.58 499.216 109.58C497.376 109.58 496.156 108.44 496.156 106.22V100.04H494.356V106.46C494.356 109.6 496.336 111.16 498.856 111.16C500.316 111.16 501.656 110.52 502.356 109.38V111H504.176V100.04ZM515.129 108.02C515.049 104.1 508.689 105.52 508.689 102.92C508.689 102.04 509.489 101.4 510.829 101.4C512.289 101.4 513.129 102.2 513.209 103.3H515.029C514.909 101.16 513.309 99.86 510.889 99.86C508.449 99.86 506.869 101.24 506.869 102.92C506.869 107 513.349 105.58 513.349 108.02C513.349 108.92 512.549 109.64 511.109 109.64C509.569 109.64 508.629 108.84 508.529 107.78H506.649C506.769 109.78 508.569 111.18 511.129 111.18C513.549 111.18 515.129 109.82 515.129 108.02ZM522.35 105.48C522.35 108.88 524.61 111.18 527.53 111.18C529.55 111.18 530.97 110.14 531.63 108.96V111H533.47V100.04H531.63V102.04C530.99 100.9 529.59 99.86 527.55 99.86C524.61 99.86 522.35 102.06 522.35 105.48ZM531.63 105.5C531.63 108.08 529.91 109.58 527.91 109.58C525.91 109.58 524.21 108.06 524.21 105.48C524.21 102.9 525.91 101.44 527.91 101.44C529.91 101.44 531.63 102.96 531.63 105.5ZM535.866 105.5C535.866 108.98 538.086 111.18 541.206 111.18C543.926 111.18 545.706 109.66 546.266 107.48H544.306C543.906 108.86 542.826 109.64 541.206 109.64C539.206 109.64 537.726 108.22 537.726 105.5C537.726 102.82 539.206 101.4 541.206 101.4C542.826 101.4 543.926 102.24 544.306 103.56H546.266C545.706 101.26 543.926 99.86 541.206 99.86C538.086 99.86 535.866 102.06 535.866 105.5ZM553.354 101.4C555.234 101.4 556.834 102.58 556.814 104.72H549.894C550.094 102.58 551.574 101.4 553.354 101.4ZM558.474 107.62H556.514C556.114 108.8 555.074 109.64 553.434 109.64C551.574 109.64 550.014 108.42 549.874 106.2H558.634C558.674 105.82 558.694 105.5 558.694 105.1C558.694 102.1 556.614 99.86 553.434 99.86C550.234 99.86 548.014 102.04 548.014 105.5C548.014 108.98 550.314 111.18 553.434 111.18C556.154 111.18 557.914 109.62 558.474 107.62ZM568.977 108.02C568.897 104.1 562.537 105.52 562.537 102.92C562.537 102.04 563.337 101.4 564.677 101.4C566.137 101.4 566.977 102.2 567.057 103.3H568.877C568.757 101.16 567.157 99.86 564.737 99.86C562.297 99.86 560.717 101.24 560.717 102.92C560.717 107 567.197 105.58 567.197 108.02C567.197 108.92 566.397 109.64 564.957 109.64C563.417 109.64 562.477 108.84 562.377 107.78H560.497C560.617 109.78 562.417 111.18 564.977 111.18C567.397 111.18 568.977 109.82 568.977 108.02ZM579.426 108.02C579.346 104.1 572.986 105.52 572.986 102.92C572.986 102.04 573.786 101.4 575.126 101.4C576.586 101.4 577.426 102.2 577.506 103.3H579.326C579.206 101.16 577.606 99.86 575.186 99.86C572.746 99.86 571.166 101.24 571.166 102.92C571.166 107 577.646 105.58 577.646 108.02C577.646 108.92 576.846 109.64 575.406 109.64C573.866 109.64 572.926 108.84 572.826 107.78H570.946C571.066 109.78 572.866 111.18 575.426 111.18C577.846 111.18 579.426 109.82 579.426 108.02ZM592.395 105.5C592.395 102.04 589.975 99.86 586.855 99.86C583.755 99.86 581.315 102.04 581.315 105.5C581.315 108.98 583.675 111.18 586.775 111.18C589.895 111.18 592.395 108.98 592.395 105.5ZM583.175 105.5C583.175 102.74 584.915 101.44 586.835 101.44C588.715 101.44 590.535 102.74 590.535 105.5C590.535 108.28 588.675 109.58 586.775 109.58C584.875 109.58 583.175 108.28 583.175 105.5ZM602.668 108.02C602.588 104.1 596.228 105.52 596.228 102.92C596.228 102.04 597.028 101.4 598.368 101.4C599.828 101.4 600.668 102.2 600.748 103.3H602.568C602.448 101.16 600.848 99.86 598.428 99.86C595.988 99.86 594.408 101.24 594.408 102.92C594.408 107 600.888 105.58 600.888 108.02C600.888 108.92 600.088 109.64 598.648 109.64C597.108 109.64 596.168 108.84 596.068 107.78H594.188C594.308 109.78 596.108 111.18 598.668 111.18C601.088 111.18 602.668 109.82 602.668 108.02ZM607.017 109.88C607.017 109.18 606.477 108.64 605.817 108.64C605.117 108.64 604.577 109.18 604.577 109.88C604.577 110.58 605.117 111.12 605.817 111.12C606.477 111.12 607.017 110.58 607.017 109.88Z" fill="white"/>
</svg>
