<svg width="290" height="14" viewBox="0 0 290 14" fill="none" xmlns="http://www.w3.org/2000/svg">
<path d="M1.688 7.14376V3.04776H3.832C5.496 3.04776 6.2 3.81576 6.2 5.11176C6.2 6.35976 5.496 7.14376 3.832 7.14376H1.688ZM7.688 5.11176C7.688 3.28776 6.456 1.84776 3.832 1.84776H0.232V12.9998H1.688V8.34376H3.832C6.6 8.34376 7.688 6.80776 7.688 5.11176ZM17.8176 8.59976C17.8176 5.83176 15.8816 4.08776 13.3856 4.08776C10.9056 4.08776 8.95363 5.83176 8.95363 8.59976C8.95363 11.3838 10.8416 13.1438 13.3216 13.1438C15.8176 13.1438 17.8176 11.3838 17.8176 8.59976ZM10.4416 8.59976C10.4416 6.39176 11.8336 5.35176 13.3696 5.35176C14.8736 5.35176 16.3296 6.39176 16.3296 8.59976C16.3296 10.8238 14.8416 11.8638 13.3216 11.8638C11.8016 11.8638 10.4416 10.8238 10.4416 8.59976ZM26.148 12.9998H27.588V7.83176C27.588 5.31976 26.036 4.07176 24.004 4.07176C22.82 4.07176 21.764 4.56776 21.188 5.47976V4.23176H19.732V12.9998H21.188V8.15176C21.188 6.26376 22.212 5.33576 23.7 5.33576C25.172 5.33576 26.148 6.24776 26.148 8.03976V12.9998ZM30.2864 10.5998C30.2864 12.3598 31.1664 12.9998 32.7184 12.9998H34.0304V11.7678H32.9584C32.0624 11.7678 31.7424 11.4638 31.7424 10.5998V5.43176H34.0304V4.23176H31.7424V2.02376H30.2864V4.23176H29.1504V5.43176H30.2864V10.5998ZM44.1145 8.59976C44.1145 5.83176 42.1785 4.08776 39.6825 4.08776C37.2025 4.08776 35.2505 5.83176 35.2505 8.59976C35.2505 11.3838 37.1385 13.1438 39.6185 13.1438C42.1145 13.1438 44.1145 11.3838 44.1145 8.59976ZM36.7385 8.59976C36.7385 6.39176 38.1305 5.35176 39.6665 5.35176C41.1705 5.35176 42.6265 6.39176 42.6265 8.59976C42.6265 10.8238 41.1385 11.8638 39.6185 11.8638C38.0985 11.8638 36.7385 10.8238 36.7385 8.59976ZM51.0849 1.71976C47.9489 1.71976 45.4849 4.07176 45.4849 7.41576C45.4849 10.7598 47.9489 13.0958 51.0849 13.0958C54.1089 13.0958 56.3009 10.8718 56.5569 8.10376V6.98376H50.5569V8.16776H55.0049C54.7809 10.3758 53.2769 11.7838 51.0849 11.7838C48.7329 11.7838 46.9729 10.0878 46.9729 7.41576C46.9729 4.72776 48.7329 3.03176 51.0849 3.03176C52.6529 3.03176 53.8689 3.78376 54.4769 5.07976H56.2209C55.3889 2.93576 53.4369 1.71976 51.0849 1.71976ZM66.802 8.59976C66.802 5.83176 64.866 4.08776 62.37 4.08776C59.89 4.08776 57.938 5.83176 57.938 8.59976C57.938 11.3838 59.826 13.1438 62.306 13.1438C64.802 13.1438 66.802 11.3838 66.802 8.59976ZM59.426 8.59976C59.426 6.39176 60.818 5.35176 62.354 5.35176C63.858 5.35176 65.314 6.39176 65.314 8.59976C65.314 10.8238 63.826 11.8638 62.306 11.8638C60.786 11.8638 59.426 10.8238 59.426 8.59976ZM72.678 7.75176H79.062V6.51976H72.678V7.75176ZM85.3721 3.03176H88.4281V12.9998H89.8841V3.03176H92.9241V1.84776H85.3721V3.03176ZM103.036 8.59976C103.036 5.83176 101.1 4.08776 98.6044 4.08776C96.1244 4.08776 94.1724 5.83176 94.1724 8.59976C94.1724 11.3838 96.0604 13.1438 98.5404 13.1438C101.036 13.1438 103.036 11.3838 103.036 8.59976ZM95.6604 8.59976C95.6604 6.39176 97.0524 5.35176 98.5884 5.35176C100.092 5.35176 101.548 6.39176 101.548 8.59976C101.548 10.8238 100.06 11.8638 98.5404 11.8638C97.0204 11.8638 95.6604 10.8238 95.6604 8.59976ZM104.407 8.58376C104.407 11.3038 106.215 13.1438 108.567 13.1438C110.167 13.1438 111.303 12.3278 111.831 11.3518V12.9998H113.303V1.15976H111.831V5.79976C111.223 4.79176 109.959 4.08776 108.583 4.08776C106.215 4.08776 104.407 5.84776 104.407 8.58376ZM111.831 8.59976C111.831 10.6638 110.455 11.8638 108.855 11.8638C107.255 11.8638 105.895 10.6478 105.895 8.58376C105.895 6.51976 107.255 5.35176 108.855 5.35176C110.455 5.35176 111.831 6.56776 111.831 8.59976ZM124.083 8.59976C124.083 5.83176 122.147 4.08776 119.651 4.08776C117.171 4.08776 115.219 5.83176 115.219 8.59976C115.219 11.3838 117.107 13.1438 119.587 13.1438C122.083 13.1438 124.083 11.3838 124.083 8.59976ZM116.707 8.59976C116.707 6.39176 118.099 5.35176 119.635 5.35176C121.139 5.35176 122.595 6.39176 122.595 8.59976C122.595 10.8238 121.107 11.8638 119.587 11.8638C118.067 11.8638 116.707 10.8238 116.707 8.59976ZM132.302 10.6158C132.238 7.47976 127.15 8.61576 127.15 6.53576C127.15 5.83176 127.79 5.31976 128.862 5.31976C130.03 5.31976 130.702 5.95976 130.766 6.83976H132.222C132.126 5.12776 130.846 4.08776 128.91 4.08776C126.958 4.08776 125.694 5.19176 125.694 6.53576C125.694 9.79976 130.878 8.66376 130.878 10.6158C130.878 11.3358 130.238 11.9118 129.086 11.9118C127.854 11.9118 127.102 11.2718 127.022 10.4238H125.518C125.614 12.0238 127.054 13.1438 129.102 13.1438C131.038 13.1438 132.302 12.0558 132.302 10.6158ZM138.079 8.58376C138.079 11.3038 139.887 13.1438 142.239 13.1438C143.839 13.1438 144.975 12.3278 145.503 11.3518V12.9998H146.975V1.15976H145.503V5.79976C144.895 4.79176 143.631 4.08776 142.255 4.08776C139.887 4.08776 138.079 5.84776 138.079 8.58376ZM145.503 8.59976C145.503 10.6638 144.127 11.8638 142.527 11.8638C140.927 11.8638 139.567 10.6478 139.567 8.58376C139.567 6.51976 140.927 5.35176 142.527 5.35176C144.127 5.35176 145.503 6.56776 145.503 8.59976ZM149.435 12.9998H150.891V4.23176H149.435V12.9998ZM150.187 2.80776C150.715 2.80776 151.147 2.37576 151.147 1.81575C151.147 1.25576 150.715 0.823755 150.187 0.823755C149.627 0.823755 149.195 1.25576 149.195 1.81575C149.195 2.37576 149.627 2.80776 150.187 2.80776ZM154.829 8.23176C154.829 6.19976 155.885 5.57576 157.277 5.57576H157.661V4.07176C156.269 4.07176 155.325 4.67976 154.829 5.65576V4.23176H153.373V12.9998H154.829V8.23176ZM163.069 5.31976C164.573 5.31976 165.853 6.26376 165.837 7.97576H160.301C160.461 6.26376 161.645 5.31976 163.069 5.31976ZM167.165 10.2958H165.597C165.277 11.2398 164.445 11.9118 163.133 11.9118C161.645 11.9118 160.397 10.9358 160.285 9.15976H167.293C167.325 8.85576 167.341 8.59976 167.341 8.27976C167.341 5.87976 165.677 4.08776 163.133 4.08776C160.573 4.08776 158.797 5.83176 158.797 8.59976C158.797 11.3838 160.637 13.1438 163.133 13.1438C165.309 13.1438 166.717 11.8958 167.165 10.2958ZM169.263 12.9998H170.719V4.23176H169.263V12.9998ZM170.015 2.80776C170.543 2.80776 170.975 2.37576 170.975 1.81575C170.975 1.25576 170.543 0.823755 170.015 0.823755C169.455 0.823755 169.023 1.25576 169.023 1.81575C169.023 2.37576 169.455 2.80776 170.015 2.80776ZM173.521 10.5998C173.521 12.3598 174.401 12.9998 175.953 12.9998H177.265V11.7678H176.193C175.297 11.7678 174.977 11.4638 174.977 10.5998V5.43176H177.265V4.23176H174.977V2.02376H173.521V4.23176H172.385V5.43176H173.521V10.5998ZM187.349 8.59976C187.349 5.83176 185.413 4.08776 182.917 4.08776C180.437 4.08776 178.485 5.83176 178.485 8.59976C178.485 11.3838 180.373 13.1438 182.853 13.1438C185.349 13.1438 187.349 11.3838 187.349 8.59976ZM179.973 8.59976C179.973 6.39176 181.365 5.35176 182.901 5.35176C184.405 5.35176 185.861 6.39176 185.861 8.59976C185.861 10.8238 184.373 11.8638 182.853 11.8638C181.333 11.8638 179.973 10.8238 179.973 8.59976ZM195.567 10.6158C195.503 7.47976 190.415 8.61576 190.415 6.53576C190.415 5.83176 191.055 5.31976 192.127 5.31976C193.295 5.31976 193.967 5.95976 194.031 6.83976H195.487C195.391 5.12776 194.111 4.08776 192.175 4.08776C190.223 4.08776 188.959 5.19176 188.959 6.53576C188.959 9.79976 194.143 8.66376 194.143 10.6158C194.143 11.3358 193.503 11.9118 192.351 11.9118C191.119 11.9118 190.367 11.2718 190.287 10.4238H188.783C188.879 12.0238 190.319 13.1438 192.367 13.1438C194.303 13.1438 195.567 12.0558 195.567 10.6158ZM203.344 8.23176C203.344 6.19976 204.4 5.57576 205.792 5.57576H206.176V4.07176C204.784 4.07176 203.84 4.67976 203.344 5.65576V4.23176H201.888V12.9998H203.344V8.23176ZM211.585 5.31976C213.089 5.31976 214.369 6.26376 214.353 7.97576H208.817C208.977 6.26376 210.161 5.31976 211.585 5.31976ZM215.681 10.2958H214.113C213.793 11.2398 212.961 11.9118 211.649 11.9118C210.161 11.9118 208.913 10.9358 208.801 9.15976H215.809C215.841 8.85576 215.857 8.59976 215.857 8.27976C215.857 5.87976 214.193 4.08776 211.649 4.08776C209.089 4.08776 207.313 5.83176 207.313 8.59976C207.313 11.3838 209.153 13.1438 211.649 13.1438C213.825 13.1438 215.233 11.8958 215.681 10.2958ZM224.083 10.6158C224.019 7.47976 218.931 8.61576 218.931 6.53576C218.931 5.83176 219.571 5.31976 220.643 5.31976C221.811 5.31976 222.483 5.95976 222.547 6.83976H224.003C223.907 5.12776 222.627 4.08776 220.691 4.08776C218.739 4.08776 217.475 5.19176 217.475 6.53576C217.475 9.79976 222.659 8.66376 222.659 10.6158C222.659 11.3358 222.019 11.9118 220.867 11.9118C219.635 11.9118 218.883 11.2718 218.803 10.4238H217.299C217.395 12.0238 218.835 13.1438 220.883 13.1438C222.819 13.1438 224.083 12.0558 224.083 10.6158ZM229.866 5.31976C231.37 5.31976 232.65 6.26376 232.634 7.97576H227.098C227.258 6.26376 228.442 5.31976 229.866 5.31976ZM233.962 10.2958H232.394C232.074 11.2398 231.242 11.9118 229.93 11.9118C228.442 11.9118 227.194 10.9358 227.082 9.15976H234.09C234.122 8.85576 234.138 8.59976 234.138 8.27976C234.138 5.87976 232.474 4.08776 229.93 4.08776C227.37 4.08776 225.594 5.83176 225.594 8.59976C225.594 11.3838 227.434 13.1438 229.93 13.1438C232.106 13.1438 233.514 11.8958 233.962 10.2958ZM237.516 8.23176C237.516 6.19976 238.572 5.57576 239.964 5.57576H240.348V4.07176C238.956 4.07176 238.012 4.67976 237.516 5.65576V4.23176H236.06V12.9998H237.516V8.23176ZM240.989 4.23176L244.429 12.9998H246.125L249.565 4.23176H248.013L245.293 11.6558L242.557 4.23176H240.989ZM250.454 8.58376C250.454 11.3038 252.262 13.1438 254.598 13.1438C256.214 13.1438 257.35 12.3118 257.878 11.3678V12.9998H259.35V4.23176H257.878V5.83176C257.366 4.91976 256.246 4.08776 254.614 4.08776C252.262 4.08776 250.454 5.84776 250.454 8.58376ZM257.878 8.59976C257.878 10.6638 256.502 11.8638 254.902 11.8638C253.302 11.8638 251.942 10.6478 251.942 8.58376C251.942 6.51976 253.302 5.35176 254.902 5.35176C256.502 5.35176 257.878 6.56776 257.878 8.59976ZM261.266 8.58376C261.266 11.3038 263.074 13.1438 265.426 13.1438C267.026 13.1438 268.162 12.3278 268.69 11.3518V12.9998H270.162V1.15976H268.69V5.79976C268.082 4.79176 266.818 4.08776 265.442 4.08776C263.074 4.08776 261.266 5.84776 261.266 8.58376ZM268.69 8.59976C268.69 10.6638 267.314 11.8638 265.714 11.8638C264.114 11.8638 262.754 10.6478 262.754 8.58376C262.754 6.51976 264.114 5.35176 265.714 5.35176C267.314 5.35176 268.69 6.56776 268.69 8.59976ZM280.943 8.59976C280.943 5.83176 279.007 4.08776 276.511 4.08776C274.031 4.08776 272.079 5.83176 272.079 8.59976C272.079 11.3838 273.967 13.1438 276.447 13.1438C278.943 13.1438 280.943 11.3838 280.943 8.59976ZM273.567 8.59976C273.567 6.39176 274.959 5.35176 276.495 5.35176C277.999 5.35176 279.455 6.39176 279.455 8.59976C279.455 10.8238 277.967 11.8638 276.447 11.8638C274.927 11.8638 273.567 10.8238 273.567 8.59976ZM289.161 10.6158C289.097 7.47976 284.009 8.61576 284.009 6.53576C284.009 5.83176 284.649 5.31976 285.721 5.31976C286.889 5.31976 287.561 5.95976 287.625 6.83976H289.081C288.985 5.12776 287.705 4.08776 285.769 4.08776C283.817 4.08776 282.553 5.19176 282.553 6.53576C282.553 9.79976 287.737 8.66376 287.737 10.6158C287.737 11.3358 287.097 11.9118 285.945 11.9118C284.713 11.9118 283.961 11.2718 283.881 10.4238H282.377C282.473 12.0238 283.913 13.1438 285.961 13.1438C287.897 13.1438 289.161 12.0558 289.161 10.6158Z" fill="white"/>
</svg>
